# Blender 5.1.2
# www.blender.org
mtllib body_lines.mtl
o body.lines
v 0.000000 1.333578 0.128011
v 0.000000 1.333578 -0.149863
v 0.000000 1.203587 0.012757
v 0.000000 1.501619 -0.046965
v 0.169827 1.333578 -0.010926
v 0.002630 0.836109 0.092647
v 0.002630 0.836109 -0.082786
v 0.049986 0.911477 0.117689
v 0.002630 0.927707 -0.107618
v 0.136675 0.897890 0.047667
v 0.092983 0.897890 0.077412
v 0.092985 0.897890 -0.085189
v 0.136675 0.897890 -0.039910
v 0.086401 0.927707 -0.110021
v 0.130091 0.927707 -0.064747
v 0.130091 0.942010 0.072772
v 0.086398 0.942010 0.102455
v 0.002630 0.905088 0.132089
v 0.005711 1.333578 0.128011
v 0.005711 1.333578 -0.149863
v 0.008239 1.499773 -0.046965
v 0.006601 1.203587 0.012757
v 0.000000 1.203587 0.124670
v 0.000000 1.206928 0.128011
v 0.000000 1.460648 0.057553
v 0.000000 1.464728 0.052800
v 0.000000 1.206726 -0.103641
v 0.000000 1.203587 -0.099157
v 0.000000 1.464728 -0.146730
v 0.000000 1.460229 -0.149863
v 0.086228 1.206785 0.124796
v 0.081416 1.206928 0.128011
v 0.081789 1.203587 0.124670
v 0.115658 1.463569 0.052593
v 0.114319 1.460648 0.057553
v 0.119290 1.460329 0.054611
v 0.081370 1.206726 -0.103641
v 0.086154 1.206752 -0.100581
v 0.081789 1.203587 -0.099157
v 0.115658 1.463569 -0.146523
v 0.119239 1.460229 -0.146845
v 0.114325 1.460229 -0.149863
v 0.114323 1.333578 -0.149863
v 0.118899 1.333578 -0.146694
v 0.118950 1.333578 0.124706
v 0.114317 1.333578 0.128011
v 0.136903 1.206829 0.012166
v 0.132395 1.203587 0.012757
v 0.169827 1.460255 -0.046046
v 0.166196 1.464383 -0.046965
v 0.004112 1.206726 -0.103641
v 0.004146 1.203587 -0.099157
v 0.005711 1.460229 -0.149863
v 0.005788 1.464678 -0.146712
v 0.004115 1.206928 0.128011
v 0.004146 1.203587 0.124670
v 0.005711 1.460648 0.057553
v 0.005788 1.464678 0.052782
v 0.000000 0.836109 0.092647
v 0.000000 0.836109 -0.082786
v 0.000000 0.927707 -0.107618
v 0.000000 0.905088 0.132089
v 0.002630 1.029573 0.113660
v 0.001758 1.028019 0.115444
v 0.002630 1.028059 -0.072239
v 0.002630 1.029573 -0.070136
v 0.064946 1.029573 0.106154
v 0.066050 1.028046 0.107548
v 0.107892 1.029573 0.062060
v 0.109735 1.028084 0.062947
v 0.119139 1.029573 -0.028289
v 0.120927 1.028047 -0.029377
v 0.076452 1.029573 -0.072518
v 0.077236 1.028054 -0.074644
v 0.000000 1.028019 0.115444
v 0.000000 1.029573 0.113660
v 0.000000 1.029573 -0.070136
v 0.000000 1.028061 -0.072238
v -0.169827 1.333578 -0.010926
v -0.002630 0.836109 0.092647
v -0.002630 0.836109 -0.082786
v -0.049986 0.911477 0.117689
v -0.002630 0.927707 -0.107618
v -0.136675 0.897890 0.047667
v -0.092983 0.897890 0.077412
v -0.092985 0.897890 -0.085189
v -0.136675 0.897890 -0.039910
v -0.086401 0.927707 -0.110021
v -0.130091 0.927707 -0.064747
v -0.130091 0.942010 0.072772
v -0.086398 0.942010 0.102455
v -0.002630 0.905088 0.132089
v -0.005711 1.333578 0.128011
v -0.005711 1.333578 -0.149863
v -0.008239 1.499773 -0.046965
v -0.006601 1.203587 0.012757
v -0.086228 1.206785 0.124796
v -0.081416 1.206928 0.128011
v -0.081789 1.203587 0.124670
v -0.115658 1.463569 0.052593
v -0.114319 1.460648 0.057553
v -0.119290 1.460329 0.054611
v -0.081370 1.206726 -0.103641
v -0.086154 1.206752 -0.100581
v -0.081789 1.203587 -0.099157
v -0.115658 1.463569 -0.146523
v -0.119239 1.460229 -0.146845
v -0.114325 1.460229 -0.149863
v -0.114323 1.333578 -0.149863
v -0.118899 1.333578 -0.146694
v -0.118950 1.333578 0.124706
v -0.114317 1.333578 0.128011
v -0.136903 1.206829 0.012166
v -0.132395 1.203587 0.012757
v -0.169827 1.460255 -0.046046
v -0.166196 1.464383 -0.046965
v -0.004112 1.206726 -0.103641
v -0.004146 1.203587 -0.099157
v -0.005711 1.460229 -0.149863
v -0.005788 1.464678 -0.146712
v -0.004115 1.206928 0.128011
v -0.004146 1.203587 0.124670
v -0.005711 1.460648 0.057553
v -0.005788 1.464678 0.052782
v -0.002630 1.029573 0.113660
v -0.001758 1.028019 0.115444
v -0.002630 1.028059 -0.072239
v -0.002630 1.029573 -0.070136
v -0.064946 1.029573 0.106154
v -0.066050 1.028046 0.107548
v -0.107892 1.029573 0.062060
v -0.109735 1.028084 0.062947
v -0.119139 1.029573 -0.028289
v -0.120927 1.028047 -0.029377
v -0.076452 1.029573 -0.072518
v -0.077236 1.028054 -0.074644
vn -0.0000 -1.0000 -0.0000
vn 0.6636 -0.3868 -0.6403
vn 0.5246 -0.3601 0.7714
vn 0.9844 0.1754 -0.0111
vn 0.5170 -0.4749 0.7121
vn 0.5644 -0.8255 -0.0000
vn 0.1064 -0.3715 -0.9223
vn 0.3142 -0.4712 0.8241
vn 0.4248 -0.6160 0.6634
vn 0.3700 0.7534 0.5436
vn 0.3605 -0.7480 -0.5573
vn 0.4401 0.5410 -0.7167
vn -0.0000 -0.8193 -0.5734
vn 0.0039 0.6398 -0.7685
vn 0.5066 -0.4077 -0.7597
vn 0.5319 -0.8122 -0.2397
vn 0.6117 0.7272 0.3115
vn 0.5605 -0.1448 0.8154
vn -0.0000 -0.7071 0.7071
vn 0.0043 0.7613 0.6483
vn 0.5461 -0.0012 -0.8377
vn 0.5051 0.4176 0.7553
vn 0.5731 -0.7777 0.2583
vn 0.6877 0.6362 -0.3498
vn 0.0038 0.5747 -0.8184
vn 0.0046 0.8134 0.5817
vn -0.0000 -0.0000 1.0000
vn -0.0000 0.4849 0.8746
vn 0.1265 0.9326 0.3380
vn -0.0000 -0.3424 -0.9396
vn 0.1265 0.9326 -0.3380
vn -0.0000 -0.0000 -1.0000
vn 0.9067 -0.2009 0.3709
vn 0.1322 0.9688 0.2097
vn 0.9071 0.1604 0.3893
vn 0.8755 -0.3245 -0.3581
vn 0.1322 0.9688 -0.2097
vn 0.9175 -0.0560 -0.3937
vn -0.0000 -0.2617 -0.9652
vn -0.0000 -0.4964 0.8681
vn 0.4303 0.8015 -0.4153
vn 0.4517 0.7753 0.4415
vn 0.6395 0.7648 0.0784
vn -0.0188 0.8107 -0.5852
vn 0.0838 0.7186 0.6904
vn -0.0000 0.7541 0.6568
vn 0.0001 0.8116 -0.5842
vn 0.2722 0.1310 0.9533
vn -0.0000 0.1342 0.9910
vn 0.2072 0.0564 0.9767
vn -0.0000 1.0000 -0.0000
vn -0.0000 0.3325 -0.9431
vn -0.0286 0.3312 -0.9431
vn 0.6381 0.1715 0.7506
vn 0.9878 0.1511 0.0387
vn 0.6872 0.2966 -0.6632
vn -0.6636 -0.3868 -0.6403
vn -0.5246 -0.3601 0.7714
vn -0.9844 0.1754 -0.0111
vn -0.5170 -0.4749 0.7121
vn -0.5644 -0.8255 -0.0000
vn -0.1064 -0.3715 -0.9223
vn -0.3142 -0.4712 0.8241
vn -0.4248 -0.6160 0.6634
vn -0.3700 0.7534 0.5436
vn -0.3605 -0.7480 -0.5573
vn -0.4401 0.5410 -0.7167
vn -0.0039 0.6398 -0.7685
vn -0.5066 -0.4077 -0.7597
vn -0.5319 -0.8122 -0.2397
vn -0.6117 0.7272 0.3115
vn -0.5605 -0.1448 0.8154
vn -0.0043 0.7613 0.6483
vn -0.5461 -0.0012 -0.8377
vn -0.5051 0.4176 0.7553
vn -0.5731 -0.7777 0.2583
vn -0.6877 0.6362 -0.3498
vn -0.0038 0.5747 -0.8184
vn -0.0046 0.8134 0.5817
vn -0.1265 0.9326 0.3380
vn -0.1265 0.9326 -0.3380
vn -0.9067 -0.2009 0.3709
vn -0.1322 0.9688 0.2097
vn -0.9071 0.1604 0.3893
vn -0.8755 -0.3245 -0.3581
vn -0.1322 0.9688 -0.2097
vn -0.9175 -0.0560 -0.3937
vn -0.4303 0.8015 -0.4153
vn -0.4517 0.7753 0.4415
vn -0.6395 0.7648 0.0784
vn 0.0188 0.8107 -0.5852
vn -0.0838 0.7186 0.6904
vn -0.0001 0.8116 -0.5842
vn -0.2722 0.1310 0.9533
vn -0.2072 0.0564 0.9767
vn 0.0286 0.3312 -0.9431
vn -0.6381 0.1715 0.7506
vn -0.9878 0.1511 0.0387
vn -0.6872 0.2966 -0.6632
vt 0.348360 0.803280
vt 0.348361 0.446723
vt 0.375000 0.563652
vt 0.375000 0.686767
vt 0.463889 0.550868
vt 0.463889 0.416039
vt 0.463889 0.833966
vt 0.463889 0.699533
vt 0.463889 1.000000
vt 0.375000 1.000000
vt 0.125000 0.500000
vt 0.125000 0.750000
vt 0.375000 0.250000
vt 0.463889 0.250000
vt 0.000000 0.000000
vt 0.378165 0.747448
vt 0.375526 0.757080
vt 0.367801 0.748888
vt 0.628453 0.750190
vt 0.622191 0.757203
vt 0.622188 0.747361
vt 0.375347 0.492906
vt 0.377903 0.502408
vt 0.367801 0.501112
vt 0.628409 0.501509
vt 0.621792 0.503509
vt 0.621788 0.494607
vt 0.137129 0.503623
vt 0.125000 0.503623
vt 0.137187 0.500000
vt 0.625000 0.262211
vt 0.621788 0.262129
vt 0.500000 0.502851
vt 0.500000 0.492805
vt 0.368264 0.625000
vt 0.378117 0.625000
vt 0.630346 0.625000
vt 0.621813 0.625000
vt 0.500000 0.757208
vt 0.500000 0.747027
vt 0.137129 0.746377
vt 0.137191 0.750000
vt 0.625000 0.987789
vt 0.625000 1.000000
vt 0.622191 1.000000
vt 0.622191 0.987871
vt 0.625000 0.250000
vt 0.621788 0.250000
vt 0.125000 0.746377
vt 0.125000 0.625000
vt 0.137129 0.625000
vt 0.378212 0.987871
vt 0.500000 0.987872
vt 0.500000 1.000000
vt 0.378212 1.000000
vt 0.862871 0.625000
vt 0.875000 0.625000
vt 0.875000 0.746194
vt 0.862871 0.746172
vt 0.378018 0.250000
vt 0.500000 0.250000
vt 0.500000 0.262129
vt 0.378018 0.262129
vt 0.862871 0.503828
vt 0.875000 0.503806
vt 0.500000 0.625000
vt 0.658064 0.440725
vt 0.627197 0.559704
vt 0.622586 0.559638
vt 0.652951 0.438040
vt 0.627643 0.690393
vt 0.658819 0.808975
vt 0.652469 0.812022
vt 0.622259 0.690915
vt 0.622606 0.250000
vt 0.617906 0.991148
vt 0.625046 0.999721
vt 0.617198 0.987516
vt 0.622608 0.250000
vt 0.875000 0.747895
vt 0.875000 0.502098
vt 0.875000 0.747895
s 0
usemtl Material.001
f 11/1/1 12/2/1 13/3/1 10/4/1
f 15/5/2 13/3/2 12/2/2 14/6/2
f 17/7/3 11/1/3 10/4/3 16/8/3
f 13/3/4 15/5/4 16/8/4 10/4/4
f 11/1/5 17/7/5 8/9/5 6/10/5
f 7/11/6 12/2/6 11/1/6 6/12/6
f 7/13/7 9/14/7 14/6/7 12/2/7
f 8/9/8 18/15/8 6/10/8
f 32/17/27 46/39/27 19/53/27 55/52/27
f 22/51/1 48/35/1 33/18/1 56/41/1
f 47/36/33 5/66/33 45/40/33 31/16/33
f 50/37/34 21/56/34 58/59/34 34/19/34
f 5/66/35 49/38/35 36/21/35 45/40/35
f 46/39/28 35/20/28 57/46/28 19/53/28
f 38/23/36 44/33/36 5/66/36 47/36/36
f 52/28/1 39/24/1 48/35/1 22/51/1
f 51/63/30 20/62/30 43/34/30 37/22/30
f 40/25/37 54/64/37 21/56/37 50/37/37
f 20/62/32 53/32/32 42/27/32 43/34/32
f 44/33/38 41/26/38 49/38/38 5/66/38
f 64/76/48 18/15/48 8/9/48
f 17/7/50 68/73/50 64/76/50 8/9/50
f 71/68/51 73/67/51 66/81/51 63/80/51 67/72/51 69/71/51
f 9/14/53 65/75/53 74/70/53 14/6/53
f 68/73/54 17/7/54 16/8/54 70/74/54
f 15/5/55 72/69/55 70/74/55 16/8/55
f 72/69/56 15/5/56 14/6/56 74/70/56
f 85/1/1 84/4/1 87/3/1 86/2/1
f 89/5/57 88/6/57 86/2/57 87/3/57
f 91/7/58 90/8/58 84/4/58 85/1/58
f 87/3/59 84/4/59 90/8/59 89/5/59
f 85/1/60 80/10/60 82/9/60 91/7/60
f 81/11/61 80/12/61 85/1/61 86/2/61
f 81/13/62 86/2/62 88/6/62 83/14/62
f 82/9/63 80/10/63 92/15/63
f 98/17/27 121/52/27 93/53/27 112/39/27
f 96/51/1 122/41/1 99/18/1 114/35/1
f 113/36/82 97/16/82 111/40/82 79/66/82
f 116/37/83 100/19/83 124/59/83 95/56/83
f 79/66/84 111/40/84 102/21/84 115/38/84
f 112/39/28 93/53/28 123/46/28 101/20/28
f 104/23/85 113/36/85 79/66/85 110/33/85
f 118/28/1 96/51/1 114/35/1 105/24/1
f 117/63/30 103/22/30 109/34/30 94/62/30
f 106/25/86 116/37/86 95/56/86 120/64/86
f 94/62/32 109/34/32 108/27/32 119/32/32
f 110/33/87 79/66/87 115/38/87 107/26/87
f 126/76/94 82/9/94 92/15/94
f 91/7/95 82/9/95 126/76/95 130/73/95
f 133/68/51 131/71/51 129/72/51 125/80/51 128/81/51 135/67/51
f 83/14/96 88/6/96 136/70/96 127/75/96
f 130/73/97 132/74/97 90/8/97 91/7/97
f 89/5/98 90/8/98 132/74/98 134/69/98
f 134/69/99 136/70/99 88/6/99 89/5/99
usemtl Material.002
f 31/16/9 32/17/9 33/18/9
f 34/19/10 35/20/10 36/21/10
f 37/22/11 38/23/11 39/24/11
f 40/25/12 41/26/12 42/27/12
f 52/28/13 28/29/13 27/11/13 51/30/13
f 54/31/14 40/25/14 42/27/14 53/32/14
f 44/33/15 38/23/15 37/22/15 43/34/15
f 48/35/16 39/24/16 38/23/16 47/36/16
f 50/37/17 34/19/17 36/21/17 49/38/17
f 46/39/18 32/17/18 31/16/18 45/40/18
f 56/41/19 33/18/19 32/17/19 55/42/19
f 58/43/20 26/44/20 25/45/20 57/46/20
f 41/26/21 44/33/21 43/34/21 42/27/21
f 35/20/22 46/39/22 45/40/22 36/21/22
f 33/18/23 48/35/23 47/36/23 31/16/23
f 40/25/24 50/37/24 49/38/24 41/26/24
f 39/24/13 52/28/13 51/30/13 37/22/13
f 29/47/25 54/31/25 53/32/25 30/48/25
f 23/49/19 56/41/19 55/42/19 24/12/19
f 34/19/26 58/43/26 57/46/26 35/20/26
f 3/50/1 22/51/1 56/41/1 23/49/1
f 55/52/27 19/53/27 1/54/27 24/55/27
f 19/53/28 57/46/28 25/45/28 1/54/28
f 21/56/29 4/57/29 26/58/29 58/59/29
f 27/60/30 2/61/30 20/62/30 51/63/30
f 28/29/1 52/28/1 22/51/1 3/50/1
f 54/64/31 29/65/31 4/57/31 21/56/31
f 2/61/32 30/48/32 53/32/32 20/62/32
f 7/11/1 6/12/1 59/12/1 60/11/1
f 9/14/39 7/13/39 60/13/39 61/14/39
f 6/10/40 18/15/40 62/15/40 59/10/40
f 73/67/41 71/68/41 72/69/41 74/70/41
f 69/71/42 67/72/42 68/73/42 70/74/42
f 70/74/43 72/69/43 71/68/43 69/71/43
f 74/70/44 65/75/44 66/47/44 73/67/44
f 64/76/45 68/73/45 67/72/45 63/77/45
f 75/78/46 64/76/46 63/77/46 76/44/46
f 65/75/47 78/79/47 77/47/47 66/47/47
f 18/15/49 64/76/49 75/78/49 62/15/49
f 63/80/51 66/81/51 77/81/51 76/82/51
f 65/75/52 9/14/52 61/14/52 78/79/52
f 97/16/64 99/18/64 98/17/64
f 100/19/65 102/21/65 101/20/65
f 103/22/66 105/24/66 104/23/66
f 106/25/67 108/27/67 107/26/67
f 118/28/13 117/30/13 27/11/13 28/29/13
f 120/31/68 119/32/68 108/27/68 106/25/68
f 110/33/69 109/34/69 103/22/69 104/23/69
f 114/35/70 113/36/70 104/23/70 105/24/70
f 116/37/71 115/38/71 102/21/71 100/19/71
f 112/39/72 111/40/72 97/16/72 98/17/72
f 122/41/19 121/42/19 98/17/19 99/18/19
f 124/43/73 123/46/73 25/45/73 26/44/73
f 107/26/74 108/27/74 109/34/74 110/33/74
f 101/20/75 102/21/75 111/40/75 112/39/75
f 99/18/76 97/16/76 113/36/76 114/35/76
f 106/25/77 107/26/77 115/38/77 116/37/77
f 105/24/13 103/22/13 117/30/13 118/28/13
f 29/47/78 30/48/78 119/32/78 120/31/78
f 23/49/19 24/12/19 121/42/19 122/41/19
f 100/19/79 101/20/79 123/46/79 124/43/79
f 3/50/1 23/49/1 122/41/1 96/51/1
f 121/52/27 24/55/27 1/54/27 93/53/27
f 93/53/28 1/54/28 25/45/28 123/46/28
f 95/56/80 124/59/80 26/58/80 4/57/80
f 27/60/30 117/63/30 94/62/30 2/61/30
f 28/29/1 3/50/1 96/51/1 118/28/1
f 120/64/81 95/56/81 4/57/81 29/65/81
f 2/61/32 94/62/32 119/32/32 30/48/32
f 81/11/1 60/11/1 59/12/1 80/12/1
f 83/14/39 61/14/39 60/13/39 81/13/39
f 80/10/40 59/10/40 62/15/40 92/15/40
f 135/67/88 136/70/88 134/69/88 133/68/88
f 131/71/89 132/74/89 130/73/89 129/72/89
f 132/74/90 131/71/90 133/68/90 134/69/90
f 136/70/91 135/67/91 128/47/91 127/75/91
f 126/76/92 125/77/92 129/72/92 130/73/92
f 75/78/46 76/44/46 125/77/46 126/76/46
f 127/75/93 128/47/93 77/47/93 78/79/93
f 92/15/49 62/15/49 75/78/49 126/76/49
f 125/80/51 76/82/51 77/81/51 128/81/51
f 127/75/52 78/79/52 61/14/52 83/14/52
