# Blender 5.1.2
# www.blender.org
mtllib body.mtl
o body
v 0.000000 1.203587 0.128011
v 0.000000 1.463569 0.055933
v 0.000000 1.203587 -0.102498
v 0.000000 1.463569 -0.149863
v 0.083944 1.203587 0.128011
v 0.117711 1.463569 0.055933
v 0.083944 1.203587 -0.102498
v 0.117711 1.463569 -0.149863
v 0.000000 1.333578 0.128011
v 0.000000 1.333578 -0.149863
v 0.117711 1.333578 -0.149863
v 0.117711 1.333578 0.128011
v 0.000000 1.203587 0.012757
v 0.000000 1.501619 -0.046965
v 0.136061 1.203587 0.012757
v 0.169827 1.463569 -0.046965
v 0.169827 1.333578 -0.010926
v 0.000000 0.836109 0.092647
v 0.000000 1.029573 0.115233
v 0.000000 0.836109 -0.082786
v 0.000000 1.029573 -0.071705
v 0.049986 0.911477 0.117689
v 0.000000 0.927707 -0.107618
v 0.136675 0.897890 0.047667
v 0.092983 0.897890 0.077412
v 0.063060 1.029573 0.107638
v 0.106754 1.029573 0.062776
v 0.092985 0.897890 -0.085189
v 0.136675 0.897890 -0.039910
v 0.118158 1.029573 -0.028839
v 0.074467 1.029573 -0.074108
v 0.086401 0.927707 -0.110021
v 0.130091 0.927707 -0.064747
v 0.130091 0.942010 0.072772
v 0.086398 0.942010 0.102455
v 0.000000 0.905088 0.132089
v -0.083944 1.203587 0.128011
v -0.117711 1.463569 0.055933
v -0.083944 1.203587 -0.102498
v -0.117711 1.463569 -0.149863
v -0.117711 1.333578 -0.149863
v -0.117711 1.333578 0.128011
v -0.136061 1.203587 0.012757
v -0.169827 1.463569 -0.046965
v -0.169827 1.333578 -0.010926
v -0.049986 0.911477 0.117689
v -0.136675 0.897890 0.047667
v -0.092983 0.897890 0.077412
v -0.063060 1.029573 0.107638
v -0.106754 1.029573 0.062776
v -0.092985 0.897890 -0.085189
v -0.136675 0.897890 -0.039910
v -0.118158 1.029573 -0.028839
v -0.074467 1.029573 -0.074108
v -0.086401 0.927707 -0.110021
v -0.130091 0.927707 -0.064747
v -0.130091 0.942010 0.072772
v -0.086398 0.942010 0.102455
v 0.083944 1.203587 -0.102498
v 0.083944 1.203587 -0.102498
v 0.000000 1.203587 -0.102498
v 0.000000 1.463569 -0.149863
v 0.117711 1.463569 -0.149863
v 0.117711 1.463569 -0.149863
v 0.117711 1.333578 -0.149863
v 0.136061 1.203587 0.012757
v 0.136061 1.203587 0.012757
v 0.169827 1.463569 -0.046965
v 0.169827 1.463569 -0.046965
v 0.117711 1.463569 0.055933
v 0.117711 1.463569 0.055933
v 0.117711 1.333578 0.128011
v 0.083944 1.203587 0.128011
v 0.083944 1.203587 0.128011
v 0.000000 1.203587 0.128011
v 0.000000 1.463569 0.055933
v 0.169827 1.333578 -0.010926
v 0.000000 0.836109 -0.082786
v 0.000000 0.836109 -0.082786
v 0.000000 0.836109 0.092647
v 0.000000 0.836109 0.092647
v 0.000000 0.836109 0.092647
v 0.092983 0.897890 0.077412
v 0.092983 0.897890 0.077412
v 0.092985 0.897890 -0.085189
v 0.092985 0.897890 -0.085189
v 0.092985 0.897890 -0.085189
v 0.086401 0.927707 -0.110021
v 0.086401 0.927707 -0.110021
v 0.086401 0.927707 -0.110021
v 0.130091 0.927707 -0.064747
v 0.130091 0.927707 -0.064747
v 0.136675 0.897890 -0.039910
v 0.136675 0.897890 -0.039910
v 0.130091 0.942010 0.072772
v 0.130091 0.942010 0.072772
v 0.136675 0.897890 0.047667
v 0.136675 0.897890 0.047667
v 0.074467 1.029573 -0.074108
v 0.074467 1.029573 -0.074108
v 0.118158 1.029573 -0.028839
v 0.118158 1.029573 -0.028839
v 0.106754 1.029573 0.062776
v 0.106754 1.029573 0.062776
v 0.063060 1.029573 0.107638
v 0.000000 1.029573 -0.071705
v 0.000000 1.029573 0.115233
v 0.000000 1.029573 0.115233
v 0.000000 0.927707 -0.107618
v 0.000000 0.905088 0.132089
v 0.000000 0.905088 0.132089
v 0.000000 0.905088 0.132089
v -0.083944 1.203587 -0.102498
v -0.083944 1.203587 -0.102498
v -0.117711 1.463569 -0.149863
v -0.117711 1.463569 -0.149863
v -0.117711 1.333578 -0.149863
v -0.136061 1.203587 0.012757
v -0.136061 1.203587 0.012757
v -0.169827 1.463569 -0.046965
v -0.169827 1.463569 -0.046965
v -0.117711 1.463569 0.055933
v -0.117711 1.463569 0.055933
v -0.117711 1.333578 0.128011
v -0.083944 1.203587 0.128011
v -0.083944 1.203587 0.128011
v -0.169827 1.333578 -0.010926
v -0.092983 0.897890 0.077412
v -0.092983 0.897890 0.077412
v -0.092985 0.897890 -0.085189
v -0.092985 0.897890 -0.085189
v -0.092985 0.897890 -0.085189
v -0.086401 0.927707 -0.110021
v -0.086401 0.927707 -0.110021
v -0.086401 0.927707 -0.110021
v -0.130091 0.927707 -0.064747
v -0.130091 0.927707 -0.064747
v -0.136675 0.897890 -0.039910
v -0.136675 0.897890 -0.039910
v -0.130091 0.942010 0.072772
v -0.130091 0.942010 0.072772
v -0.136675 0.897890 0.047667
v -0.136675 0.897890 0.047667
v -0.074467 1.029573 -0.074108
v -0.074467 1.029573 -0.074108
v -0.118158 1.029573 -0.028839
v -0.118158 1.029573 -0.028839
v -0.106754 1.029573 0.062776
v -0.106754 1.029573 0.062776
v -0.063060 1.029573 0.107638
vn -0.0000 -0.0000 1.0000
vn -0.0000 0.9379 0.3468
vn -0.0000 -1.0000 -0.0000
vn -0.0000 -0.0000 -1.0000
vn 0.9041 0.1583 0.3970
vn 0.8921 -0.0000 -0.4518
vn -0.0000 0.2504 0.9681
vn -0.0000 -0.1738 -0.9848
vn 0.9090 -0.1907 -0.3705
vn -0.0000 0.2724 0.9622
vn -0.0000 1.0000 -0.0000
vn 0.8852 0.1243 0.4483
vn 0.9064 -0.2249 -0.3576
vn -0.5534 -0.8329 -0.0000
vn -0.1561 0.0866 0.9839
vn -0.0000 0.3325 -0.9431
vn 0.3958 -0.2452 0.8850
vn -0.0000 0.3308 -0.9437
vn 0.9863 0.1642 -0.0142
vn 0.5534 -0.8329 -0.0000
vn 0.9559 0.2684 0.1190
vn 0.6636 -0.3868 -0.6403
vn 0.9833 0.1782 0.0381
vn 0.6835 0.3126 -0.6596
vn 0.9835 0.1790 0.0253
vn 0.5291 -0.0659 0.8460
vn -0.2992 -0.4736 0.8283
vn -0.8867 -0.2303 0.4009
vn -0.1406 0.9701 0.1979
vn -0.0000 -0.1595 -0.9872
vn -0.9284 -0.0466 0.3686
vn -0.9059 -0.2022 0.3722
vn -0.2186 0.9758 -0.0000
vn -0.9064 -0.2249 -0.3576
vn -0.3958 -0.2452 0.8850
vn -0.9863 0.1642 -0.0142
vn -0.9559 0.2684 0.1190
vn -0.0603 -0.4730 -0.8790
vn -0.9765 0.2156 -0.0000
vn -0.9833 0.1782 0.0381
vn 0.0262 0.3296 -0.9437
vn -0.9879 0.1549 -0.0095
vn -0.9835 0.1790 0.0253
vn -0.5291 -0.0659 0.8460
vn -0.0000 -0.3424 -0.9396
vn 0.8747 -0.3241 -0.3603
vn -0.0000 0.9379 -0.3468
vn 0.1406 0.9701 -0.1979
vn 0.8699 -0.2976 -0.3934
vn 0.9059 -0.2022 0.3722
vn 0.2186 0.9758 -0.0000
vn 0.9158 -0.0520 -0.3982
vn 0.1406 0.9701 0.1979
vn -0.0000 0.4849 0.8746
vn 0.9284 -0.0466 0.3686
vn 0.8867 -0.2303 0.4009
vn 0.9258 0.0203 0.3775
vn -0.0000 -0.2617 -0.9652
vn 0.3879 -0.5119 0.7665
vn -0.3879 -0.5119 0.7665
vn 0.5294 -0.4024 0.7469
vn 0.6636 -0.3868 -0.6404
vn 0.0603 -0.4730 -0.8790
vn -0.0262 0.3296 -0.9437
vn -0.0213 -0.6426 -0.7659
vn 0.9879 0.1549 -0.0095
vn 0.9765 0.2156 -0.0000
vn 0.5246 -0.3601 0.7714
vn 0.5459 0.2372 0.8036
vn 0.5249 -0.3604 0.7711
vn -0.0287 0.3312 -0.9431
vn 0.6578 0.1786 0.7317
vn 0.4185 0.1050 0.9021
vn 0.1561 0.0866 0.9839
vn -0.0000 -0.3628 -0.9319
vn 0.2592 0.1296 0.9571
vn 0.2992 -0.4736 0.8283
vn -0.2592 0.1296 0.9571
vn -0.8747 -0.3241 -0.3603
vn -0.1406 0.9701 -0.1979
vn -0.8921 -0.0000 -0.4518
vn -0.9090 -0.1907 -0.3705
vn -0.8699 -0.2976 -0.3934
vn -0.8852 0.1243 0.4483
vn -0.9158 -0.0520 -0.3982
vn -0.9041 0.1583 0.3970
vn -0.9258 0.0203 0.3775
vn -0.5294 -0.4024 0.7469
vn -0.6636 -0.3868 -0.6404
vn -0.6835 0.3126 -0.6596
vn 0.0213 -0.6426 -0.7659
vn -0.6636 -0.3868 -0.6403
vn -0.5246 -0.3601 0.7714
vn -0.5459 0.2372 0.8036
vn -0.5249 -0.3604 0.7711
vn 0.0287 0.3312 -0.9431
vn -0.6578 0.1786 0.7317
vn -0.4185 0.1050 0.9021
vt 0.375000 0.750000
vt 0.500000 1.000000
vt 0.375000 1.000000
vt 0.625000 0.250000
vt 0.500000 0.500000
vt 0.500000 0.250000
vt 0.500000 0.625000
vt 0.625000 0.750000
vt 0.500000 0.750000
vt 0.125000 0.625000
vt 0.125000 0.750000
vt 0.875000 0.625000
vt 0.625000 0.625000
vt 0.375000 0.625000
vt 0.375000 0.500000
vt 0.375000 0.250000
vt 0.625000 0.500000
vt 0.125000 0.500000
vt 0.348360 0.803280
vt 0.375000 0.563652
vt 0.375000 0.686767
vt 0.463889 0.550868
vt 0.348361 0.446723
vt 0.463889 0.416039
vt 0.463889 0.699533
vt 0.463889 0.833966
vt 0.655814 0.438373
vt 0.625000 0.559772
vt 0.625000 0.690766
vt 0.655816 0.811632
vt 0.463889 1.000000
vt 0.875000 0.750000
vt 0.463889 0.250000
vt 0.625000 1.000000
vt 0.000000 0.000000
vt 0.875000 0.500000
s 1
f 74/1/1 9/2/7 1/3/1
f 4/4/4 65/5/30 10/6/8
f 77/7/57 6/8/5 72/9/55
f 71/8/54 9/2/7 12/9/10
f 13/10/3 5/1/3 75/11/3
f 14/12/11 70/8/53 68/13/51
f 67/14/50 72/9/55 73/1/56
f 10/6/8 59/15/45 61/16/45
f 60/15/46 17/7/13 66/14/49
f 64/17/48 14/12/11 68/13/51
f 7/15/3 13/10/3 3/18/3
f 11/5/9 69/13/52 17/7/13
f 83/19/3 94/20/3 97/21/3
f 91/22/22 86/23/62 88/24/62
f 84/19/61 95/25/68 35/26/26
f 33/22/24 99/27/24 101/28/24
f 35/26/26 103/29/72 105/30/73
f 92/22/66 24/21/19 93/20/67
f 84/19/61 22/31/17 81/3/59
f 78/18/20 25/19/20 80/11/20
f 108/32/11 26/30/11 104/29/11
f 105/30/73 22/31/17 35/26/26
f 30/28/23 34/25/25 92/22/66
f 109/33/75 87/23/63 79/16/58
f 23/33/18 100/27/71 89/24/64
f 107/34/74 110/35/76 22/31/17
f 22/31/17 111/35/77 81/3/59
f 125/1/1 9/2/7 124/9/10
f 41/5/30 4/4/4 10/6/8
f 127/7/87 122/8/86 120/13/84
f 9/2/7 123/8/54 124/9/10
f 13/10/3 126/1/3 119/14/3
f 38/8/29 14/12/11 44/13/33
f 43/14/32 42/9/31 127/7/87
f 113/15/45 10/6/8 61/16/45
f 114/15/79 45/7/34 117/5/82
f 115/17/80 14/12/11 62/36/47
f 13/10/3 39/15/3 3/18/3
f 117/5/82 121/13/85 116/17/81
f 128/19/3 139/20/3 130/23/3
f 136/22/92 131/23/89 138/20/92
f 140/25/93 129/19/88 58/26/44
f 144/27/90 137/22/90 146/28/90
f 148/29/97 58/26/44 150/30/98
f 47/21/36 56/22/42 52/20/39
f 129/19/88 46/31/35 58/26/44
f 20/18/14 48/19/14 132/23/14
f 108/32/11 106/36/11 149/29/11
f 46/31/35 150/30/98 58/26/44
f 57/25/43 53/28/40 56/22/42
f 51/23/38 109/33/75 79/16/58
f 23/33/18 145/27/96 21/4/16
f 19/34/15 46/31/35 112/35/78
f 46/31/35 82/3/60 36/35/27
f 74/1/1 12/9/10 9/2/7
f 4/4/4 63/17/4 65/5/30
f 77/7/57 16/13/12 6/8/5
f 71/8/54 76/34/54 9/2/7
f 13/10/3 15/14/3 5/1/3
f 14/12/11 2/32/2 70/8/53
f 67/14/50 77/7/57 72/9/55
f 10/6/8 65/5/30 59/15/45
f 60/15/46 11/5/9 17/7/13
f 64/17/48 62/36/47 14/12/11
f 7/15/3 15/14/3 13/10/3
f 11/5/9 8/17/6 69/13/52
f 83/19/3 85/23/3 94/20/3
f 91/22/22 29/20/22 86/23/62
f 84/19/61 98/21/70 95/25/68
f 33/22/24 32/24/24 99/27/24
f 35/26/26 96/25/69 103/29/72
f 92/22/66 34/25/25 24/21/19
f 84/19/61 35/26/26 22/31/17
f 78/18/20 28/23/20 25/19/20
f 104/29/11 102/28/11 106/36/11
f 102/28/11 31/27/11 106/36/11
f 106/36/11 108/32/11 104/29/11
f 105/30/73 107/34/74 22/31/17
f 30/28/23 27/29/21 34/25/25
f 109/33/75 90/24/65 87/23/63
f 23/33/18 21/4/16 100/27/71
f 125/1/1 1/3/1 9/2/7
f 41/5/30 40/17/4 4/4/4
f 127/7/87 42/9/31 122/8/86
f 9/2/7 76/34/54 123/8/54
f 13/10/3 75/11/3 126/1/3
f 38/8/29 2/32/2 14/12/11
f 43/14/32 37/1/28 42/9/31
f 113/15/45 41/5/30 10/6/8
f 114/15/79 118/14/83 45/7/34
f 115/17/80 44/13/33 14/12/11
f 13/10/3 119/14/3 39/15/3
f 117/5/82 45/7/34 121/13/85
f 128/19/3 142/21/3 139/20/3
f 136/22/92 133/24/89 131/23/89
f 140/25/93 143/21/95 129/19/88
f 144/27/90 134/24/90 137/22/90
f 148/29/97 141/25/94 58/26/44
f 47/21/36 57/25/43 56/22/42
f 129/19/88 82/3/60 46/31/35
f 20/18/14 18/11/14 48/19/14
f 54/27/11 147/28/11 106/36/11
f 147/28/11 149/29/11 106/36/11
f 149/29/11 49/30/11 108/32/11
f 46/31/35 19/34/15 150/30/98
f 57/25/43 50/29/37 53/28/40
f 51/23/38 135/24/91 109/33/75
f 23/33/18 55/24/41 145/27/96
