# Blender 5.1.2
# www.blender.org
mtllib char_ground.mtl
o char_ground
v -0.200000 0.000000 0.200000
v 0.200000 0.000000 0.200000
v -0.200000 0.000000 -0.200000
v 0.200000 0.000000 -0.200000
v -0.180000 0.000000 -0.180000
v -0.180000 0.000000 0.180000
v 0.180000 0.000000 0.180000
v 0.180000 0.000000 -0.180000
vn -0.0000 1.0000 -0.0000
vt 0.950000 0.050000
vt 0.050000 0.950000
vt 0.050000 0.050000
vt 0.000000 0.000000
vt 1.000000 0.000000
vt 1.000000 1.000000
vt 0.950000 0.950000
vt 0.000000 1.000000
s 0
usemtl Material.001
f 7/1/1 5/2/1 6/3/1
f 7/1/1 8/7/1 5/2/1
usemtl Material.002
f 5/2/1 1/4/1 6/3/1
f 6/3/1 2/5/1 7/1/1
f 7/1/1 4/6/1 8/7/1
f 8/7/1 3/8/1 5/2/1
f 5/2/1 3/8/1 1/4/1
f 6/3/1 1/4/1 2/5/1
f 7/1/1 2/5/1 4/6/1
f 8/7/1 4/6/1 3/8/1
