# Blender 5.1.2
# www.blender.org
mtllib eyes.mtl
o eyes
v 0.010441 1.624189 0.094316
v 0.064531 1.624189 0.074629
v 0.010441 1.681751 0.094316
v 0.064531 1.681751 0.074629
v 0.016084 1.675745 0.090941
v 0.016084 1.630195 0.090941
v 0.058888 1.630195 0.075362
v 0.058888 1.675745 0.075362
v 0.037486 1.630195 0.087280
v 0.037486 1.675745 0.087280
v 0.037486 1.624189 0.088601
v 0.037486 1.681751 0.088601
v -0.010441 1.624189 0.094316
v -0.064531 1.624189 0.074629
v -0.010441 1.681751 0.094316
v -0.064531 1.681751 0.074629
v -0.016084 1.675745 0.090941
v -0.016084 1.630195 0.090941
v -0.058888 1.630195 0.075362
v -0.058888 1.675745 0.075362
v -0.037486 1.630195 0.087280
v -0.037486 1.675745 0.087280
v -0.037486 1.624189 0.088601
v -0.037486 1.681751 0.088601
vn 0.3674 0.1687 0.9146
vn 0.3012 0.1684 0.9386
vn 0.3674 -0.1687 0.9146
vn 0.3012 -0.1684 0.9386
vn 0.3137 -0.1235 0.9415
vn 0.3137 0.1235 0.9415
vn 0.3418 0.1102 0.9333
vn 0.3418 -0.1102 0.9333
vn 0.3343 0.1029 0.9368
vn 0.3343 -0.1029 0.9368
vn 0.3180 0.2249 0.9210
vn 0.3180 -0.2249 0.9210
vn -0.3674 0.1687 0.9146
vn -0.3012 0.1684 0.9386
vn -0.3674 -0.1687 0.9146
vn -0.3012 -0.1684 0.9386
vn -0.3137 -0.1235 0.9415
vn -0.3137 0.1235 0.9415
vn -0.3418 0.1102 0.9333
vn -0.3418 -0.1102 0.9333
vn -0.3343 0.1029 0.9368
vn -0.3343 -0.1029 0.9368
vn -0.3180 0.2249 0.9210
vn -0.3180 -0.2249 0.9210
vt 0.895663 0.104338
vt 0.500000 0.895662
vt 0.500000 0.104338
vt 0.104337 0.895662
vt 0.000000 0.000000
vt 0.104337 0.104338
vt 0.500000 0.000000
vt 1.000000 1.000000
vt 0.895663 0.895662
vt 0.500000 1.000000
vt 0.000000 1.000000
vt 1.000000 0.000000
s 1
f 7/1/7 10/2/10 9/3/9
f 5/4/5 1/5/1 6/6/6
f 6/6/6 11/7/11 9/3/9
f 7/1/7 4/8/4 8/9/8
f 8/9/8 12/10/12 10/2/10
f 5/4/5 12/10/12 3/11/3
f 7/1/7 11/7/11 2/12/2
f 6/6/6 10/2/10 5/4/5
f 22/2/22 19/1/19 21/3/21
f 13/5/13 17/4/17 18/6/18
f 23/7/23 18/6/18 21/3/21
f 16/8/16 19/1/19 20/9/20
f 24/10/24 20/9/20 22/2/22
f 17/4/17 24/10/24 22/2/22
f 19/1/19 23/7/23 21/3/21
f 18/6/18 22/2/22 21/3/21
f 7/1/7 8/9/8 10/2/10
f 5/4/5 3/11/3 1/5/1
f 6/6/6 1/5/1 11/7/11
f 7/1/7 2/12/2 4/8/4
f 8/9/8 4/8/4 12/10/12
f 5/4/5 10/2/10 12/10/12
f 7/1/7 9/3/9 11/7/11
f 6/6/6 9/3/9 10/2/10
f 22/2/22 20/9/20 19/1/19
f 13/5/13 15/11/15 17/4/17
f 23/7/23 13/5/13 18/6/18
f 16/8/16 14/12/14 19/1/19
f 24/10/24 16/8/16 20/9/20
f 17/4/17 15/11/15 24/10/24
f 19/1/19 14/12/14 23/7/23
f 18/6/18 17/4/17 22/2/22
