# Blender 5.1.2
# www.blender.org
mtllib head_simple.mtl
o head.simple
v 0.000000 1.542979 0.085497
v 0.000000 1.626072 -0.105815
v 0.075566 1.585219 0.054922
v 0.075566 1.641901 -0.075582
v 0.000000 1.571778 -0.042044
v 0.000000 1.542979 0.021727
v 0.000000 1.764688 0.021727
v 0.000000 1.764688 -0.042044
v 0.075566 1.585219 0.011421
v 0.075566 1.736459 0.011421
v 0.000000 1.750157 -0.074390
v 0.000000 1.717026 -0.103941
v 0.075566 1.703946 -0.074304
v 0.000000 1.721707 0.085492
v 0.000000 1.756658 0.046813
v 0.075566 1.707141 0.054922
v 0.052930 1.631600 -0.095256
v 0.052930 1.754829 -0.038564
v 0.052930 1.754829 0.018127
v 0.052930 1.583333 -0.038564
v 0.052930 1.557731 0.018127
v 0.052930 1.741911 -0.067319
v 0.052930 1.712458 -0.093590
v 0.052930 1.747694 0.040432
v -0.075566 1.585219 0.054922
v -0.075566 1.641901 -0.075582
v -0.075566 1.585219 0.011421
v -0.075566 1.736459 0.011421
v -0.075566 1.703946 -0.074304
v -0.075566 1.707141 0.054922
v -0.052930 1.631600 -0.095256
v -0.052930 1.754829 -0.038564
v -0.052930 1.754829 0.018127
v -0.052930 1.583333 -0.038564
v -0.052930 1.557731 0.018127
v -0.052930 1.741911 -0.067319
v -0.052930 1.712458 -0.093590
v -0.052930 1.747694 0.040432
vn -0.0000 -0.6939 0.7200
vn -0.0000 -0.4130 -0.9107
vn 0.8062 -0.3228 0.4958
vn 0.8933 -0.1857 -0.4093
vn -0.0000 -0.8475 -0.5308
vn -0.0000 -0.9807 -0.1954
vn -0.0000 0.9875 0.1578
vn -0.0000 0.9771 -0.2127
vn 0.9126 -0.3892 -0.1252
vn 0.8910 0.4496 0.0627
vn -0.0000 0.8055 -0.5926
vn -0.0000 0.3674 -0.9300
vn 0.9023 0.2117 -0.3755
vn -0.0000 0.3474 0.9377
vn -0.0000 0.8306 0.5568
vn 0.7897 0.2297 0.5688
vn 0.4729 -0.3646 -0.8021
vn 0.5276 0.8243 -0.2051
vn 0.4238 0.8946 0.1420
vn 0.4887 -0.7317 -0.4751
vn 0.5133 -0.8501 -0.1180
vn 0.5202 0.7134 -0.4696
vn 0.4901 0.3495 -0.7985
vn 0.4537 0.7456 0.4881
vn -0.8062 -0.3228 0.4958
vn -0.8933 -0.1857 -0.4093
vn -0.9126 -0.3892 -0.1252
vn -0.8910 0.4496 0.0627
vn -0.9023 0.2117 -0.3755
vn -0.7897 0.2297 0.5688
vn -0.4729 -0.3646 -0.8021
vn -0.5276 0.8243 -0.2051
vn -0.4238 0.8946 0.1420
vn -0.4887 -0.7317 -0.4751
vn -0.5133 -0.8501 -0.1180
vn -0.5202 0.7134 -0.4696
vn -0.4901 0.3495 -0.7985
vn -0.4537 0.7456 0.4881
vt 0.290761 0.666667
vt 0.375000 0.666667
vt 0.375000 0.750000
vt 0.709239 0.583333
vt 0.875000 0.583333
vt 0.875000 0.666667
vt 0.709239 0.666667
vt 0.290761 0.500000
vt 0.375000 0.500000
vt 0.290761 0.583333
vt 0.625000 0.666667
vt 0.625000 0.811896
vt 0.585587 0.750000
vt 0.625000 0.427664
vt 0.570733 0.500000
vt 0.570733 0.415761
vt 0.709239 0.533896
vt 0.875000 0.543514
vt 0.125000 0.750000
vt 0.375000 0.415761
vt 0.625000 1.000000
vt 0.585587 1.000000
vt 0.709239 0.710624
vt 0.875000 0.699453
vt 0.375000 0.250000
vt 0.570733 0.250000
vt 0.625000 0.228243
vt 0.125000 0.583333
vt 0.125000 0.666667
vt 0.125000 0.500000
vt 0.375000 1.000000
s 1
f 21/1/21 9/2/9 3/3/3
f 18/4/18 8/5/8 7/6/7 19/7/19
f 17/8/17 4/9/4 9/2/9 20/10/20
f 20/10/20 9/2/9 21/1/21
f 10/11/10 24/12/24 16/13/16
f 22/14/22 10/11/10 13/15/13 23/16/23
f 22/17/22 11/18/11 8/5/8 18/4/18
f 1/19/1 21/1/21 3/3/3
f 17/20/17 23/16/23 13/15/13 4/9/4
f 4/9/4 13/15/13 10/11/10 9/2/9
f 24/12/24 15/21/15 14/22/14 16/13/16
f 10/11/10 19/7/19 24/23/24
f 3/3/3 16/13/16 14/22/14
f 19/7/19 7/6/7 15/24/15 24/23/24
f 9/2/9 10/11/10 16/13/16 3/3/3
f 2/25/2 12/26/12 23/16/23 17/20/17
f 10/11/10 22/17/22 18/4/18
f 11/27/11 22/14/22 23/16/23 12/26/12
f 5/28/5 20/10/20 21/1/21 6/29/6
f 2/30/2 17/8/17 20/10/20 5/28/5
f 10/11/10 18/4/18 19/7/19
f 6/29/6 21/1/21 1/19/1
f 14/22/14 1/31/1 3/3/3
f 35/1/35 25/3/25 27/2/27
f 32/4/32 33/7/33 7/6/7 8/5/8
f 31/8/31 34/10/34 27/2/27 26/9/26
f 34/10/34 35/1/35 27/2/27
f 28/11/28 30/13/30 38/12/38
f 36/14/36 37/16/37 29/15/29 28/11/28
f 36/17/36 32/4/32 8/5/8 11/18/11
f 1/19/1 25/3/25 35/1/35
f 31/20/31 26/9/26 29/15/29 37/16/37
f 26/9/26 27/2/27 28/11/28 29/15/29
f 38/12/38 30/13/30 14/22/14 15/21/15
f 28/11/28 38/23/38 33/7/33
f 25/3/25 14/22/14 30/13/30
f 33/7/33 38/23/38 15/24/15 7/6/7
f 27/2/27 25/3/25 30/13/30 28/11/28
f 2/25/2 31/20/31 37/16/37 12/26/12
f 28/11/28 32/4/32 36/17/36
f 11/27/11 12/26/12 37/16/37 36/14/36
f 5/28/5 6/29/6 35/1/35 34/10/34
f 2/30/2 5/28/5 34/10/34 31/8/31
f 28/11/28 33/7/33 32/4/32
f 6/29/6 1/19/1 35/1/35
f 14/22/14 25/3/25 1/31/1
